<?xml version="1.0" encoding="UTF-8"?>
<svg id="Capa_1" xmlns="http://www.w3.org/2000/svg" version="1.1" viewBox="0 0 23 23">
  <!-- Generator: Adobe Illustrator 29.0.1, SVG Export Plug-In . SVG Version: 2.1.0 Build 192)  -->
  <defs>
    <style>
      .st0 {
        fill: #f0ab33;
      }
    </style>
  </defs>
  <g id="Design">
    <g id="_x30_1">
      <g id="Tab">
        <g id="Icon">
          <path id="Shape" class="st0" d="M17.9,12.2c0,0-.2-.1-.3-.1h-.3c.1-.3.2-.5.2-.8,0-.1,0-.3,0-.4,0-.4-.4-.8-.7-1,0,0,0,0-.1,0,0,0,0,0,0-.1.2-.4.3-.8.2-1.3-.1-.4-.4-.8-.7-1,0,0,0,0-.1,0,.4-.5.5-1.2.1-1.8-.3-.6-1-.9-1.6-.9.3-1.4,0-2.4-.6-3.1-1.1-1.2-3-.8-3.1-.8-.2,0-.3.2-.3.4,0,.2.2.3.3.4,0,0,.3.5.3,1s-.5,1-1.2,1c-1.6,0-2.9,1.3-3,2.9h-.2c-.6.2-1.1.7-1.3,1.4s.1,1.3.7,1.7c-.4.3-.6.8-.6,1.3s.3,1,.7,1.3c0,0-.1.1-.2.2h-.7c-.1,0-.2,0-.3.1,0,0-.1.2,0,.3l.5,3.8c0,.2.2.3.4.3h.5l.9,5.6c0,.2.2.3.4.3h7.6c.2,0,.3-.1.4-.3l.9-5.6h.6c.2,0,.4-.1.4-.3l.5-3.8c0-.1,0-.2,0-.3h0ZM12.7,15.8l3-3h1.4v.7c0,0-2.4,2.3-2.4,2.3h-2.1ZM8,21.7l-.3-1.8,3.4-3.4h2.1l-5.2,5.1ZM16.7,11c0,.4-.1.9-.5,1h-8.1l7.1-1.6h.4c.5-.2,1,0,1.1.6h0ZM16.1,8.5c0,.2,0,.5-.1.7-.1.2-.3.4-.6.4l-8,1.8c-.3,0-.7,0-.9-.3-.2-.2-.3-.6-.2-.9,0-.3.4-.6.7-.6h.5c0-.1,7.5-1.8,7.5-1.8h0c.2,0,.5,0,.7.1.2.1.4.3.4.6h0ZM9.9,4.1c.5,0,1-.2,1.4-.6.3-.3.5-.8.5-1.2,0-.4,0-.7-.2-1.1,0,0,.1,0,.2,0,.5,0,1.1.2,1.5.6.5.6.6,1.5.3,2.8l-5.9,1.4c.1-1.1,1.1-1.9,2.2-1.9ZM6.3,7.4c.1-.2.3-.4.6-.4l7.5-1.7c0,0,.1,0,.2,0,.5,0,.9.4.9.8,0,.5-.3.9-.7,1l-7.5,1.7c-.4,0-.7,0-1-.4-.2-.3-.2-.7,0-1h0ZM5.8,12.8h9.5l-3,3h-6.1l-.4-3ZM10.7,16.6l-3,3-.5-3h3.5ZM15,21.7h-6.5l5.2-5.2h2.2l-.9,5.2ZM16.3,15.8h-1.1l1.8-1.8-.2,1.8h-.5Z"/>
          <path id="Path" class="st0" d="M12.5,1.8c0,0-.2,0-.2,0,0,0,0,.2,0,.2.2,0,.4.4.4.7,0,.5,0,1,0,1.4,0,0,0,.2.1.2,0,0,0,0,0,0,0,0,.1,0,.2-.1.3-1.1,0-2.3-.6-2.5Z"/>
          <path id="Path1" data-name="Path" class="st0" d="M7.3,8.5c0,0,.1,0,.2,0,0,0,0,0,.1-.1,0,0,0-.1,0-.2,0,0,0,0-.1,0-.1,0-.3,0-.4,0-.1,0-.2-.2-.2-.3,0,0,0-.1-.1-.1,0,0-.1,0-.2,0,0,0,0,.1,0,.2,0,.4.4.6.8.6h0Z"/>
          <path id="Path2" data-name="Path" class="st0" d="M7.5,10.8c-.3,0-.6-.1-.6-.4,0,0-.1-.1-.2-.1,0,0-.1.1-.1.2,0,.2.2.4.4.5.2.1.4.2.6.1,0,0,.1-.1.1-.2,0,0-.1-.1-.2-.1h0Z"/>
        </g>
      </g>
    </g>
  </g>
</svg>