<?xml version="1.0" encoding="UTF-8"?>
<svg id="Capa_1" xmlns="http://www.w3.org/2000/svg" version="1.1" viewBox="0 0 23 23">
  <!-- Generator: Adobe Illustrator 29.0.1, SVG Export Plug-In . SVG Version: 2.1.0 Build 192)  -->
  <defs>
    <style>
      .st0, .st1 {
        fill: #f0ab33;
      }

      .st1 {
        stroke: #f0ab33;
        stroke-width: .2px;
      }
    </style>
  </defs>
  <g id="Design">
    <g id="_x30_1">
      <g id="Tab">
        <g id="Card">
          <g id="Icon">
            <g id="Group">
              <path id="Shape" class="st1" d="M20.1,11.7H2.9c-.2,0-.4-.2-.4-.4v-2.2c0-.2.2-.4.4-.4h17.1c.2,0,.4.2.4.4v2.2c0,.2-.2.4-.4.4ZM3.4,10.8h16.2v-1.3H3.4v1.3Z"/>
              <path id="Shape1" data-name="Shape" class="st1" d="M19.8,13.5H3.2c-.2,0-.4-.2-.4-.4l-.3-1.8c0-.1,0-.3,0-.4,0-.1.2-.2.3-.2h17.1c.1,0,.3,0,.3.2,0,.1.1.2,0,.4l-.3,1.8c0,.2-.2.4-.4.4ZM3.6,12.6h15.8l.2-.9H3.5l.2.9Z"/>
              <path id="Shape2" data-name="Shape" class="st1" d="M18.3,22H4.7c-.2,0-.4-.2-.4-.4l-.3-1.8c0-.1,0-.3,0-.4,0-.1.2-.2.3-.2h14.2c.1,0,.3,0,.3.2,0,.1.1.2,0,.4l-.3,1.8c0,.2-.2.4-.4.4ZM5.1,21.1h12.9l.2-.9H4.9l.2.9Z"/>
              <path id="Shape3" data-name="Shape" class="st1" d="M18.6,20.2H4.4c-.2,0-.4-.2-.4-.4l-1.1-6.7c0-.1,0-.3,0-.4,0-.1.2-.2.3-.2h16.5c.1,0,.3,0,.3.2,0,.1.1.2,0,.4l-1.1,6.7c0,.2-.2.4-.4.4ZM4.8,19.3h13.5l1-5.8H3.8l1,5.8Z"/>
            </g>
            <path id="Shape4" data-name="Shape" class="st0" d="M19.2,9.4h-1.3c-.2,0-.4-.2-.4-.4v-3.1h-.4c-.2,0-.4-.2-.4-.4v-2.2c0-.2.2-.4.4-.4h2.2c.2,0,.4.2.4.4v5.8c0,.2-.2.4-.4.4ZM18.3,8.5h.4V3.6h-1.3v1.3h.4c.2,0,.4.2.4.4v3.1Z"/>
            <path id="Shape5" data-name="Shape" class="st0" d="M16.1,9.4h-1.3c-.2,0-.4-.2-.4-.4V1.3c0-.2.2-.4.4-.4h2.2c.2,0,.4.2.4.4v4c0,.2-.2.4-.4.4h-.4v3.1c0,.2-.2.4-.4.4ZM15.2,8.5h.4v-3.1c0-.2.2-.4.4-.4h.4V1.8h-1.3v6.7Z"/>
            <path id="Shape6" data-name="Shape" class="st0" d="M14.8,9.4h-1.3c-.2,0-.4-.2-.4-.4v-3.6h-.4c-.2,0-.4-.2-.4-.4v-2.7c0-.2.2-.4.4-.4h2.2c.2,0,.4.2.4.4v6.7c0,.2-.2.4-.4.4ZM13.9,8.5h.4V2.7h-1.3v1.8h.4c.2,0,.4.2.4.4v3.6Z"/>
            <path id="Shape7" data-name="Shape" class="st0" d="M11.7,9.4h-1.3c-.2,0-.4-.2-.4-.4V.4c0-.2.2-.4.4-.4h2.2c.2,0,.4.2.4.4v4.5c0,.2-.2.4-.4.4h-.4v3.6c0,.2-.2.4-.4.4ZM10.8,8.5h.4v-3.6c0-.2.2-.4.4-.4h.4V.9h-1.3v7.6h0Z"/>
            <path id="Shape8" data-name="Shape" class="st0" d="M10.4,9.4h-1.3c-.2,0-.4-.2-.4-.4v-2.2h-.4c-.2,0-.4-.2-.4-.4v-3.1c0-.2.2-.4.4-.4h2.2c.2,0,.4.2.4.4v5.8c0,.2-.2.4-.4.4ZM9.5,8.5h.4V3.6h-1.3v2.2h.4c.2,0,.4.2.4.4v2.2Z"/>
            <path id="Shape9" data-name="Shape" class="st0" d="M7.3,9.4h-1.3c-.2,0-.4-.2-.4-.4V1.3c0-.2.2-.4.4-.4h2.2c.2,0,.4.2.4.4v4.9c0,.2-.2.4-.4.4h-.4v2.2c0,.2-.2.4-.4.4ZM6.5,8.5h.4v-2.2c0-.2.2-.4.4-.4h.4V1.8h-1.3v6.7Z"/>
            <path id="Shape10" data-name="Shape" class="st0" d="M17.9,9.4h-1.8c-.2,0-.4-.2-.4-.4v-3.6c0-.2.2-.4.4-.4h1.8c.2,0,.4.2.4.4v3.6c0,.2-.2.4-.4.4ZM16.5,8.5h.9v-2.7h-.9v2.7Z"/>
            <path id="Shape11" data-name="Shape" class="st0" d="M13.5,9.4h-1.8c-.2,0-.4-.2-.4-.4v-4c0-.2.2-.4.4-.4h1.8c.2,0,.4.2.4.4v4c0,.2-.2.4-.4.4ZM12.2,8.5h.9v-3.1h-.9v3.1Z"/>
            <path id="Shape12" data-name="Shape" class="st0" d="M9.1,9.4h-1.8c-.2,0-.4-.2-.4-.4v-2.7c0-.2.2-.4.4-.4h1.8c.2,0,.4.2.4.4v2.7c0,.2-.2.4-.4.4ZM7.8,8.5h.9v-1.8h-.9v1.8Z"/>
            <path id="Shape13" data-name="Shape" class="st0" d="M6,9.4h-2.2c-.2,0-.4-.2-.4-.4v-4.9c0-.2.2-.4.4-.4h2.2c.2,0,.4.2.4.4v4.9c0,.2-.2.4-.4.4ZM4.3,8.5h1.3v-4h-1.3v4Z"/>
          </g>
        </g>
      </g>
    </g>
  </g>
</svg>