<?xml version="1.0" encoding="UTF-8"?>
<svg id="Capa_1" xmlns="http://www.w3.org/2000/svg" version="1.1" viewBox="0 0 23 23">
  <!-- Generator: Adobe Illustrator 29.0.1, SVG Export Plug-In . SVG Version: 2.1.0 Build 192)  -->
  <defs>
    <style>
      .st0 {
        fill: none;
        stroke: #f0ab33;
        stroke-linecap: round;
        stroke-linejoin: round;
      }
    </style>
  </defs>
  <g id="Design">
    <g id="_x30_1">
      <g id="Tab">
        <g id="Icon">
          <line id="Path" class="st0" x1="7.3" y1="5.4" x2="7.3" y2="7.1"/>
          <line id="Path1" data-name="Path" class="st0" x1="15.7" y1="5.4" x2="15.7" y2="7.1"/>
          <line id="Path2" data-name="Path" class="st0" x1="11.5" y1="4.5" x2="11.5" y2="6.2"/>
          <path id="Path3" data-name="Path" class="st0" d="M21.5,9.7c-.8-5-5-8.7-10-8.7S2.3,4.8,1.5,9.7h20Z"/>
          <path id="Path4" data-name="Path" class="st0" d="M1.3,11.5l1.3.9c.8.5,1.8.5,2.5,0h0c.8-.5,1.8-.5,2.5,0h0c.8.5,1.8.5,2.5,0h0c.8-.5,1.8-.5,2.5,0h0c.8.5,1.8.5,2.5,0h0c.8-.5,1.8-.5,2.5,0h0c.8.5,1.8.5,2.5,0l1.3-.9"/>
          <path id="Path5" data-name="Path" class="st0" d="M20.8,18.5H2.2c-.9,0-1.7-.8-1.7-1.7h0c0-1,.8-1.8,1.7-1.8h18.6c.9,0,1.7.8,1.7,1.8h0c0,1-.8,1.7-1.7,1.7Z"/>
          <path id="Path6" data-name="Path" class="st0" d="M20.8,18.5v1.2c0,1.3-1,2.3-2.2,2.3H4.4c-1.2,0-2.2-1-2.2-2.3v-1.2"/>
        </g>
      </g>
    </g>
  </g>
</svg>